#!OML:ASF E:/inclinewalkrobotboard/Project1/Captureday1/Session1/subject1.ASF
:FULLY-SPECIFIED
:DEGREES
151
root 0 0 0 1.7402242417306797 -8.970752349232367 1.2636462584764119
lowerback 1.0761356797616424 -1.4474248745029188 -3.199590285043704
upperback -0.8938529842163122 -1.83232331903046 2.332379242511913
thorax -1.2774339293448413 -0.886133411052755 4.183012536921595
lowerneck -28.966878339306017 -2.1829394781531164 -7.451976953474505
upperneck 8.221010230347813 -1.0492983526352477 5.357658797628492
head 7.025673664084884 -0.1302833696178635 2.831257141241447
rclavicle -2.6347932750729347E-15 -9.595981727441451E-16
rhumerus -32.61633656490599 -5.404052095351496 -80.18888153557218
rradius 29.956534559131267
rwrist 18.722863020084365
rhand -17.52393257301739 9.779577633139986
rfingers 7.125019999999947
rthumb 8.725730908787051 -20.046976865055072
lclavicle -1.892227125664589E-15 -7.305666290533061E-16
lhumerus -9.173044898180233 8.141891387296198 88.5575154729281
lradius 61.39812459756238
lwrist -5.122191170954973
lhand -33.76206105014896 17.6446506124422
lfingers 7.125020000000008
lthumb -6.948277833789947 47.27622671854782
rfemur -29.784648573066953 0.4497506850816162 19.159878246981503
rtibia 52.79381584114218
rfoot -5.6737049532203505 -9.581711317500819
rtoes -1.2887216272156552
lfemur 3.8974426884894293 -2.1357942580601836 -30.349440831244927
ltibia 24.04472740954418
lfoot -18.17531378511419 -1.0739884172926657
ltoes 3.756127541653953
152
root 0 0 0 1.81767062974887 -9.039301443155678 1.3337625116451046
lowerback 1.0294846492523406 -1.4991459401542664 -3.2314667017516956
upperback -0.8198735260213448 -1.9081595613437616 2.355829293812432
thorax -1.1720124403525891 -0.9244823024805208 4.222674371429968
lowerneck -29.61861083594747 -2.2476767088185854 -7.4717690590710095
upperneck 7.403000773067346 -1.1059386026052695 5.46713606911538
head 6.825622327517518 -0.11523160214619989 2.8510363436033077
rclavicle -1.749122454562754E-15 -1.4535695833591718E-15
rhumerus -32.56881780497091 -5.2759283840792115 -80.14549315797863
rradius 29.93155933303235
rwrist 18.608676548204336
rhand -17.56692495675646 9.872901881173094
rfingers 7.125019999999945
rthumb 8.6836849369963 -19.959671615248112
lclavicle -1.3864745850789139E-15 -9.573738322797797E-16
lhumerus -9.437317554817145 7.753167119922183 88.606212205678
lradius 61.468647250108766
lwrist -4.936084826127337
lhand -33.65138143049856 17.766698735226317
lfingers 7.125020000000006
lthumb -6.8404258002572735 47.40612140659703
rfemur -31.381885004394164 1.9057959409611174 18.875379613989896
rtibia 40.96951077377464
rfoot -6.5689956381366335 -11.411397933377806
rtoes -4.374918892927829
lfemur 6.285466847058194 -2.4070717271545563 -30.360956610588495
ltibia 22.829672532024475
lfoot -18.007852434949008 -1.6679108039565285
ltoes 1.3794463298195137
153
root 0 0 0 1.9052731648938201 -9.131343185108289 1.4159810674749964
lowerback 0.9705650495305123 -1.561821239309508 -3.2668624815421436
upperback -0.7369860567116762 -2.0000151954566374 2.3837051954230555
thorax -1.050316690805652 -0.9709651800775447 4.267813985997382
lowerneck -30.38479220872664 -2.3148669137407305 -7.489200899750584
upperneck 6.487957884561643 -1.153659192665421 5.571381105831735
head 6.607866803336474 -0.09371940413609597 2.868130932990562
rclavicle -7.451331734036904E-16 -2.142837892144494E-15
rhumerus -32.53044629062571 -5.111425449579487 -80.08075836378656
rradius 29.89518529161726
rwrist 18.506081786161833
rhand -17.613420275138335 9.960774110736997
rfingers 7.125019999999943
rthumb 8.637935040663143 -19.881325318460444
lclavicle -7.018671633205461E-16 -1.2809649362389253E-15
lhumerus -9.910858237650176 7.28855070571088 88.74451945225556
lradius 61.462950597248906
lwrist -4.682244064541367
lhand -33.48490954062198 17.9059491353682
lfingers 7.1250200000000055
lthumb -6.677786829335134 47.55693677621723
rfemur -33.044759773522884 3.3373258508037287 18.06385682098411
rtibia 30.73344531751829
rfoot -6.425757695489266 -12.439841205757798
rtoes -6.454493550708692
lfemur 11.32591412624703 -3.042371964984968 -30.22472659924246
ltibia 20.63226709568738
lfoot -16.562838712519877 -3.267789043682505
ltoes -3.4001761805016715
154
root 0 0 0 2.0205860002394935 -9.264668486315182 1.5269212281313702
lowerback 0.8739192695387332 -1.6424772837216266 -3.3211761044941044
upperback -0.6463075184511997 -2.118776042693352 2.4220615768018314
thorax -0.8976424679262089 -1.0308712855359097 4.333516355231082
lowerneck -31.341981715253624 -2.3832817181501387 -7.520653240719902
upperneck 5.367062328481595 -1.18709300009454 5.697846020548358
head 6.345312603671282 -0.057855494474080345 2.894057872507523
rclavicle -1.737996897982031E-16 -2.9328425003087776E-15
rhumerus -32.556713643812266 -4.9750348041351184 -79.99457159496026
rradius 29.847012958097594
rwrist 18.525544321703723
rhand -17.63147930499916 9.961885591291882
rfingers 7.125019999999943
rthumb 8.619238356656632 -19.894664999205023
lclavicle -3.961222667334059E-16 -1.5643265389182833E-15
lhumerus -9.956182359934454 6.972427035014342 88.61458402576548
lradius 61.63022379703796
lwrist -4.562430254682312
lhand -33.4223422108217 18.004355848522735
lfingers 7.125020000000005
lthumb -6.61364347620169 47.66253059256356
rfemur -34.15159810455318 4.169340327777912 17.55684758810789
rtibia 25.41179243989171
rfoot -5.9292022122606935 -12.643212203483742
rtoes -6.820186401897153
lfemur 17.13447651209811 -3.6444716513444213 -29.49672946245647
ltibia 21.388471716078133
lfoot -12.968595745169903 -6.246206009505309
ltoes -9.235476485045831
